# xmcd CD database file
#
# Track frame offsets:
#	150
#	12528
#	27253
#	39546
#	51749
#	65049
#	83692
#	93223
#	106249
#	118303
#	134323
#	146957
#
# Disc length: 2147 seconds
#
# Revision: 1
# Processed by: cddbd v1.5.2PL0 Copyright (c) Steve Scherf et al.
# Submitted via: CDex 2.21
#
DISCID=b008610c
DTITLE=Brenda Lee - Emotions
DYEAR=1961
DGENRE=Country
TTITLE0=Emotions
TTITLE1=Just Another Lie
TTITLE2=If You Love Me (Really Love Me)
TTITLE3=Crazy Talk
TTITLE4=When I Fall In Love
TTITLE5=& Kay Starr (Live!) - Around th
TTITLE6=Swanee River Rock
TTITLE7=Will You Still Love Me Tomorrow
TTITLE8=I'm learning about love
TTITLE9=Georgia on my mind
TTITLE10=Cry
TTITLE11=I'm In The Mood For Love
EXTD=YEAR: 1961
EXTT0=
EXTT1=
EXTT2=
EXTT3=
EXTT4=
EXTT5=
EXTT6=
EXTT7=
EXTT8=
EXTT9=
EXTT10=
EXTT11=
PLAYORDER=
